<svg xmlns="http://www.w3.org/2000/svg" xmlns:xlink="http://www.w3.org/1999/xlink" width="500" zoomAndPan="magnify" viewBox="0 0 375 374.999991" height="500" preserveAspectRatio="xMidYMid meet" version="1.2"><defs><clipPath id="b9b74be806"><path d="M 233.820312 27.511719 L 293.367188 27.511719 L 293.367188 87.058594 L 233.820312 87.058594 Z M 233.820312 27.511719 "/></clipPath><clipPath id="9bcf018eb3"><path d="M 263.59375 27.511719 C 247.148438 27.511719 233.820312 40.84375 233.820312 57.285156 C 233.820312 73.730469 247.148438 87.058594 263.59375 87.058594 C 280.035156 87.058594 293.367188 73.730469 293.367188 57.285156 C 293.367188 40.84375 280.035156 27.511719 263.59375 27.511719 Z M 263.59375 27.511719 "/></clipPath><clipPath id="4ea277a099"><path d="M 81.78125 287.941406 L 141.328125 287.941406 L 141.328125 347.488281 L 81.78125 347.488281 Z M 81.78125 287.941406 "/></clipPath><clipPath id="86d7c3c873"><path d="M 111.554688 287.941406 C 95.109375 287.941406 81.78125 301.269531 81.78125 317.714844 C 81.78125 334.15625 95.109375 347.488281 111.554688 347.488281 C 127.996094 347.488281 141.328125 334.15625 141.328125 317.714844 C 141.328125 301.269531 127.996094 287.941406 111.554688 287.941406 Z M 111.554688 287.941406 "/></clipPath><clipPath id="648fb2d9a8"><path d="M 157.726562 157.726562 L 217.273438 157.726562 L 217.273438 217.273438 L 157.726562 217.273438 Z M 157.726562 157.726562 "/></clipPath><clipPath id="1f77c8423a"><path d="M 187.5 157.726562 C 171.058594 157.726562 157.726562 171.058594 157.726562 187.5 C 157.726562 203.941406 171.058594 217.273438 187.5 217.273438 C 203.941406 217.273438 217.273438 203.941406 217.273438 187.5 C 217.273438 171.058594 203.941406 157.726562 187.5 157.726562 Z M 187.5 157.726562 "/></clipPath><clipPath id="d29139fa96"><path d="M 6.203125 157.726562 L 65.75 157.726562 L 65.75 217.273438 L 6.203125 217.273438 Z M 6.203125 157.726562 "/></clipPath><clipPath id="01195f9cc9"><path d="M 35.976562 157.726562 C 19.535156 157.726562 6.203125 171.058594 6.203125 187.5 C 6.203125 203.941406 19.535156 217.273438 35.976562 217.273438 C 52.421875 217.273438 65.75 203.941406 65.75 187.5 C 65.75 171.058594 52.421875 157.726562 35.976562 157.726562 Z M 35.976562 157.726562 "/></clipPath><clipPath id="5d3f437bd6"><path d="M 309.25 157.726562 L 368.796875 157.726562 L 368.796875 217.273438 L 309.25 217.273438 Z M 309.25 157.726562 "/></clipPath><clipPath id="24c994ddd2"><path d="M 339.023438 157.726562 C 322.578125 157.726562 309.25 171.058594 309.25 187.5 C 309.25 203.941406 322.578125 217.273438 339.023438 217.273438 C 355.464844 217.273438 368.796875 203.941406 368.796875 187.5 C 368.796875 171.058594 355.464844 157.726562 339.023438 157.726562 Z M 339.023438 157.726562 "/></clipPath><clipPath id="7d1baf7ca4"><path d="M 233.820312 287.941406 L 293.367188 287.941406 L 293.367188 347.488281 L 233.820312 347.488281 Z M 233.820312 287.941406 "/></clipPath><clipPath id="817a1f0dbc"><path d="M 263.59375 287.941406 C 247.148438 287.941406 233.820312 301.269531 233.820312 317.714844 C 233.820312 334.15625 247.148438 347.488281 263.59375 347.488281 C 280.035156 347.488281 293.367188 334.15625 293.367188 317.714844 C 293.367188 301.269531 280.035156 287.941406 263.59375 287.941406 Z M 263.59375 287.941406 "/></clipPath><clipPath id="0c5d5136ed"><path d="M 81.78125 27.511719 L 141.328125 27.511719 L 141.328125 87.058594 L 81.78125 87.058594 Z M 81.78125 27.511719 "/></clipPath><clipPath id="63f637ca8b"><path d="M 111.554688 27.511719 C 95.109375 27.511719 81.78125 40.84375 81.78125 57.285156 C 81.78125 73.730469 95.109375 87.058594 111.554688 87.058594 C 127.996094 87.058594 141.328125 73.730469 141.328125 57.285156 C 141.328125 40.84375 127.996094 27.511719 111.554688 27.511719 Z M 111.554688 27.511719 "/></clipPath></defs><g id="b4b3b2c457"><g clip-rule="nonzero" clip-path="url(#b9b74be806)"><g clip-rule="nonzero" clip-path="url(#9bcf018eb3)"><path style=" stroke:none;fill-rule:nonzero;fill:#00a8f1;fill-opacity:1;" d="M 233.820312 27.511719 L 293.367188 27.511719 L 293.367188 87.058594 L 233.820312 87.058594 Z M 233.820312 27.511719 "/></g></g><path style="fill:none;stroke-width:19;stroke-linecap:butt;stroke-linejoin:miter;stroke:#4d4d4d;stroke-opacity:1;stroke-miterlimit:4;" d="M 0.00102762 9.50027 L 91.214513 9.50027 " transform="matrix(1.568136,0,0,1.568136,115.822607,302.141347)"/><g clip-rule="nonzero" clip-path="url(#4ea277a099)"><g clip-rule="nonzero" clip-path="url(#86d7c3c873)"><path style=" stroke:none;fill-rule:nonzero;fill:#4d4d4d;fill-opacity:1;" d="M 81.78125 287.941406 L 141.328125 287.941406 L 141.328125 347.488281 L 81.78125 347.488281 Z M 81.78125 287.941406 "/></g></g><g clip-rule="nonzero" clip-path="url(#648fb2d9a8)"><g clip-rule="nonzero" clip-path="url(#1f77c8423a)"><path style=" stroke:none;fill-rule:nonzero;fill:#00a8f1;fill-opacity:1;" d="M 157.726562 157.726562 L 217.273438 157.726562 L 217.273438 217.273438 L 157.726562 217.273438 Z M 157.726562 157.726562 "/></g></g><g clip-rule="nonzero" clip-path="url(#d29139fa96)"><g clip-rule="nonzero" clip-path="url(#01195f9cc9)"><path style=" stroke:none;fill-rule:nonzero;fill:#4d4d4d;fill-opacity:1;" d="M 6.203125 157.726562 L 65.75 157.726562 L 65.75 217.273438 L 6.203125 217.273438 Z M 6.203125 157.726562 "/></g></g><g clip-rule="nonzero" clip-path="url(#5d3f437bd6)"><g clip-rule="nonzero" clip-path="url(#24c994ddd2)"><path style=" stroke:none;fill-rule:nonzero;fill:#00a8f1;fill-opacity:1;" d="M 309.25 157.726562 L 368.796875 157.726562 L 368.796875 217.273438 L 309.25 217.273438 Z M 309.25 157.726562 "/></g></g><g clip-rule="nonzero" clip-path="url(#7d1baf7ca4)"><g clip-rule="nonzero" clip-path="url(#817a1f0dbc)"><path style=" stroke:none;fill-rule:nonzero;fill:#00a8f1;fill-opacity:1;" d="M 233.820312 287.941406 L 293.367188 287.941406 L 293.367188 347.488281 L 233.820312 347.488281 Z M 233.820312 287.941406 "/></g></g><g clip-rule="nonzero" clip-path="url(#0c5d5136ed)"><g clip-rule="nonzero" clip-path="url(#63f637ca8b)"><path style=" stroke:none;fill-rule:nonzero;fill:#4d4d4d;fill-opacity:1;" d="M 81.78125 27.511719 L 141.328125 27.511719 L 141.328125 87.058594 L 81.78125 87.058594 Z M 81.78125 27.511719 "/></g></g><path style="fill:none;stroke-width:19;stroke-linecap:butt;stroke-linejoin:miter;stroke:#4d4d4d;stroke-opacity:1;stroke-miterlimit:4;" d="M 0.000808441 9.500157 L 91.21403 9.49961 " transform="matrix(-0.78911,1.355122,-1.355122,-0.78911,125.140134,63.468233)"/><path style="fill:none;stroke-width:19;stroke-linecap:butt;stroke-linejoin:miter;stroke:#4d4d4d;stroke-opacity:1;stroke-miterlimit:4;" d="M -0.000192831 9.500058 L 91.213648 9.499563 " transform="matrix(0.803136,1.346857,-1.346857,0.803136,51.603964,187.507137)"/><path style="fill:none;stroke-width:19;stroke-linecap:butt;stroke-linejoin:miter;stroke:#00a8f1;stroke-opacity:1;stroke-miterlimit:4;" d="M -0.000796982 9.499377 L 91.213678 9.500983 " transform="matrix(-0.78911,1.355122,-1.355122,-0.78911,274.247185,70.981512)"/><path style="fill:none;stroke-width:19;stroke-linecap:butt;stroke-linejoin:miter;stroke:#00a8f1;stroke-opacity:1;stroke-miterlimit:4;" d="M 0.000499842 9.498502 L 91.214974 9.500108 " transform="matrix(-0.78911,1.355122,-1.355122,-0.78911,348.207961,202.533752)"/><path style="fill:none;stroke-width:19;stroke-linecap:butt;stroke-linejoin:miter;stroke:#00a8f1;stroke-opacity:1;stroke-miterlimit:4;" d="M -0.0010883 9.500569 L 91.214888 9.500569 " transform="matrix(-1.568136,0.00000000273691,-0.00000000273691,-1.568136,330.838137,202.273184)"/></g></svg>