<svg xmlns="http://www.w3.org/2000/svg" xmlns:xlink="http://www.w3.org/1999/xlink" width="500" zoomAndPan="magnify" viewBox="0 0 375 374.999991" height="500" preserveAspectRatio="xMidYMid meet" version="1.2"><defs><clipPath id="cf50fa4224"><path d="M 60.769531 3.5 L 314.222656 3.5 L 314.222656 371.75 L 60.769531 371.75 Z M 60.769531 3.5 "/></clipPath></defs><g id="da3499e4d9"><g clip-rule="nonzero" clip-path="url(#cf50fa4224)"><path style=" stroke:none;fill-rule:evenodd;fill:#f6b900;fill-opacity:1;" d="M 225.386719 338.949219 C 222.496094 357.230469 206.636719 371.214844 187.496094 371.214844 C 168.355469 371.214844 152.492188 357.230469 149.601562 338.949219 C 149.367188 337.386719 149.757812 335.902344 150.773438 334.652344 C 151.789062 333.402344 153.195312 332.777344 154.757812 332.777344 L 220.152344 332.777344 C 221.714844 332.777344 223.121094 333.402344 224.136719 334.652344 C 225.230469 335.902344 225.621094 337.308594 225.386719 338.949219 Z M 145.773438 273.867188 C 133.664062 273.867188 123.820312 283.710938 123.820312 295.820312 C 123.820312 307.933594 133.664062 317.777344 145.773438 317.777344 L 229.21875 317.777344 C 241.328125 317.777344 251.171875 307.933594 251.171875 295.820312 C 251.171875 288.554688 247.578125 282.070312 242.109375 278.085938 L 155.617188 210.738281 C 149.132812 205.660156 142.179688 200.035156 135.460938 195.035156 C 126.085938 187.457031 118.351562 177.84375 112.960938 166.984375 C 107.648438 156.125 104.601562 143.703125 104.601562 130.5 C 104.601562 107.605469 113.898438 86.902344 128.898438 71.902344 C 143.898438 56.902344 164.601562 47.601562 187.496094 47.601562 C 210.386719 47.601562 231.09375 56.902344 246.09375 71.902344 C 261.09375 86.902344 270.390625 107.605469 270.390625 130.5 C 270.390625 146.359375 266.015625 161.125 258.4375 173.546875 C 250.546875 186.519531 239.140625 197.222656 225.542969 204.175781 C 214.839844 209.722656 210.621094 222.925781 216.089844 233.628906 C 221.636719 244.332031 234.84375 248.554688 245.546875 243.082031 C 266.25 232.378906 283.671875 216.128906 295.785156 196.285156 C 307.425781 177.0625 314.222656 154.5625 314.222656 130.5 C 314.222656 95.496094 300.003906 63.855469 277.109375 40.882812 C 254.140625 17.992188 222.496094 3.773438 187.496094 3.773438 C 152.492188 3.773438 120.851562 17.992188 97.878906 40.882812 C 74.988281 63.777344 60.769531 95.496094 60.769531 130.5 C 60.769531 150.34375 65.457031 169.25 73.738281 186.207031 C 82.019531 203.003906 93.816406 217.691406 108.195312 229.332031 C 115.304688 235.269531 124.210938 241.910156 131.554688 247.617188 L 165.304688 273.867188 Z M 145.773438 273.867188 "/></g></g></svg>